<?xml version="1.0" standalone="no"?>
<!DOCTYPE svg PUBLIC "-//W3C//DTD SVG 20010904//EN"
 "http://www.w3.org/TR/2001/REC-SVG-20010904/DTD/svg10.dtd">
<svg version="1.0" xmlns="http://www.w3.org/2000/svg"
 width="858.000000pt" height="858.000000pt" viewBox="0 0 858.000000 858.000000"
 preserveAspectRatio="xMidYMid meet">
<metadata>
Created by potrace 1.11, written by Peter Selinger 2001-2013
</metadata>
<g transform="translate(0.000000,858.000000) scale(0.100000,-0.100000)"
fill="#000000" stroke="none">
<path d="M5390 8453 c-8 -3 -35 -25 -60 -48 -25 -23 -128 -99 -230 -167 -330
-222 -457 -317 -685 -512 -92 -79 -384 -370 -457 -454 -31 -37 -69 -80 -83
-97 -130 -150 -325 -436 -430 -630 -21 -38 -48 -88 -60 -110 -37 -68 -120
-254 -163 -365 -49 -127 -55 -144 -57 -150 -1 -3 -13 -42 -28 -88 -50 -155
-107 -387 -131 -532 -3 -19 -7 -44 -10 -55 -2 -11 -7 -42 -10 -70 -4 -27 -9
-61 -11 -75 -22 -156 -29 -276 -29 -560 -1 -239 7 -454 18 -516 2 -11 7 -50
10 -89 4 -38 14 -112 22 -164 8 -52 13 -95 11 -97 -12 -12 -108 227 -132 326
-16 66 -35 165 -40 206 -3 27 -8 60 -11 74 -22 124 -22 594 0 780 12 93 19
166 18 171 -1 4 3 33 8 65 5 33 12 79 15 104 8 61 14 94 26 165 6 33 13 71 14
85 6 50 77 378 111 515 20 77 38 149 41 160 11 48 10 50 -41 50 -45 0 -49 -2
-70 -37 -29 -50 -134 -217 -157 -250 -11 -15 -24 -38 -29 -50 -6 -13 -30 -54
-55 -93 -24 -38 -59 -97 -78 -130 -18 -33 -51 -89 -71 -125 -187 -321 -402
-753 -547 -1095 -33 -77 -64 -149 -69 -160 -17 -38 -103 -270 -142 -385 -73
-216 -156 -516 -194 -705 -2 -11 -6 -31 -9 -45 -2 -14 -7 -41 -10 -60 -3 -19
-8 -42 -10 -50 -2 -8 -7 -37 -11 -65 -3 -27 -8 -58 -10 -69 -2 -10 -6 -44 -9
-75 -4 -31 -8 -67 -10 -80 -23 -140 -22 -622 0 -742 2 -9 6 -40 10 -70 4 -30
16 -97 27 -149 117 -556 381 -985 805 -1308 376 -287 869 -464 1438 -518 101
-10 461 -10 580 -1 143 11 310 34 390 53 6 1 28 5 50 8 22 4 76 15 120 27 44
11 87 21 95 23 78 19 318 95 374 120 17 8 56 24 86 36 274 112 569 292 779
478 484 428 711 964 666 1572 -24 322 -146 697 -345 1055 -67 122 -243 393
-297 460 -5 6 -22 28 -38 50 -17 22 -32 42 -35 45 -3 3 -17 21 -32 42 -15 20
-33 42 -41 50 -7 7 -23 27 -35 43 -64 84 -267 304 -434 470 -176 176 -188 186
-218 181 -68 -10 -92 -73 -46 -119 52 -52 200 -243 269 -350 246 -374 361
-718 351 -1047 -2 -69 -6 -136 -9 -150 -18 -100 -34 -160 -43 -160 -4 0 -7 44
-7 98 1 83 -14 242 -29 307 -16 75 -42 162 -68 235 -31 87 -140 315 -175 366
-11 16 -50 76 -88 134 -37 58 -93 139 -124 180 -68 93 -232 303 -241 310 -3 3
-19 23 -35 45 -16 22 -34 45 -39 50 -6 6 -33 39 -61 75 -27 36 -52 67 -55 70
-6 6 -124 163 -188 252 -23 31 -42 61 -42 67 0 5 -4 11 -8 13 -15 6 -130 198
-180 301 -96 195 -136 304 -171 472 -70 335 -33 675 114 1055 116 302 384 744
634 1046 14 17 35 42 45 55 45 56 122 147 157 184 47 50 57 84 32 113 -19 23
-58 34 -83 25z m-680 -4673 c180 -22 304 -69 411 -154 74 -58 151 -174 185
-279 24 -73 27 -97 27 -217 0 -117 -3 -146 -26 -223 -80 -261 -241 -444 -500
-568 -129 -61 -219 -81 -377 -82 -75 -1 -167 4 -207 12 l-73 13 -15 51 c-8 29
-17 64 -20 78 l-6 25 88 -18 c108 -22 249 -23 328 -3 191 50 334 205 392 425
21 81 24 281 4 360 -23 97 -87 215 -146 273 -169 167 -478 212 -805 119 -60
-17 -65 -21 -73 -53 -5 -19 -11 -484 -14 -1034 -5 -1036 1 -1321 33 -1513 9
-56 15 -104 13 -106 -2 -3 -100 -6 -217 -8 l-213 -3 8 425 c10 556 10 1694 0
2132 l-9 348 359 3 c197 1 450 3 563 5 113 1 244 -3 290 -8z"/>
</g>
</svg>
